<svg xmlns="http://www.w3.org/2000/svg" width="44.002" height="44.002"><path d="M31.302 0h-18.6a12.7 12.7 0 00-12.7 12.7v18.6a12.7 12.7 0 0012.7 12.7h18.6a12.7 12.7 0 0012.7-12.7V12.7A12.7 12.7 0 0031.302 0zm8.644 31.629a8.431 8.431 0 01-8.431 8.431H12.483a8.431 8.431 0 01-8.431-8.431V12.592a8.431 8.431 0 018.431-8.431H31.52a8.431 8.431 0 018.426 8.431z"/><path d="M22.001 10.688A11.417 11.417 0 1033.418 22.11a11.417 11.417 0 00-11.417-11.422zm0 18.818a7.4 7.4 0 117.4-7.4 7.4 7.4 0 01-7.4 7.405zM33.8 7.599a2.66 2.66 0 11-2.66 2.66 2.66 2.66 0 012.66-2.66z"/></svg>